<?xml version="1.0" encoding="UTF-8" standalone="no"?>
<!DOCTYPE svg PUBLIC "-//W3C//DTD SVG 1.1//EN" "http://www.w3.org/Graphics/SVG/1.1/DTD/svg11.dtd">
<svg width="100%" height="100%" viewBox="0 0 101 100" version="1.1" xmlns="http://www.w3.org/2000/svg" xmlns:xlink="http://www.w3.org/1999/xlink" xml:space="preserve" xmlns:serif="http://www.serif.com/" style="fill-rule:evenodd;clip-rule:evenodd;stroke-linejoin:round;stroke-miterlimit:2;">
    <g transform="matrix(1,0,0,1,-1840,-548)">
        <g transform="matrix(0.984187,0,0,1,0,0)">
            <g transform="matrix(3.03303,0,0,2.98507,-3667.24,-2437.07)">
                <path d="M1830.53,1027.47L1830.53,1033.5L1854.31,1033.5L1854.31,1027.47L1859.34,1027.47L1859.34,1008.04L1854.31,1008.04L1854.31,1014.4L1830.53,1014.4L1830.53,1008.04L1825.5,1008L1825.5,1027.47L1830.53,1027.47ZM1850.96,1022.78L1850.96,1030.15C1850.96,1030.15 1833.88,1030.15 1833.88,1030.15C1833.88,1030.15 1833.88,1022.78 1833.88,1022.78L1850.96,1022.78ZM1850.96,1000L1850.96,1011.06C1850.96,1011.06 1833.88,1011.06 1833.88,1011.06L1833.88,1000L1850.96,1000Z"/>
            </g>
        </g>
    </g>
</svg>
